<?xml version="1.0" standalone="no"?>
<!DOCTYPE svg PUBLIC "-//W3C//DTD SVG 20010904//EN"
 "http://www.w3.org/TR/2001/REC-SVG-20010904/DTD/svg10.dtd">
<svg version="1.0" xmlns="http://www.w3.org/2000/svg"
 width="638.000000pt" height="601.000000pt" viewBox="0 0 638.000000 601.000000"
 preserveAspectRatio="xMidYMid meet">

<g transform="translate(0.000000,601.000000) scale(0.100000,-0.100000)"
fill="#000000" stroke="none">
<path d="M2825 6003 c-293 -15 -645 -93 -926 -206 -1050 -422 -1766 -1371
-1879 -2491 -18 -175 -8 -595 19 -756 55 -339 138 -596 293 -903 290 -574 761
-1040 1343 -1327 310 -153 560 -231 918 -287 135 -21 865 -30 1047 -14 1064
98 1979 734 2441 1696 195 408 289 825 289 1290 0 435 -80 825 -247 1205 -452
1026 -1418 1707 -2538 1790 -125 9 -605 11 -760 3z m275 -2883 c127 -117 166
-140 185 -110 4 6 10 59 13 118 l7 107 655 0 655 0 3 -222 2 -223 -39 0 -39 0
-4 163 c-3 89 -8 170 -12 180 -10 21 -45 31 -106 31 -61 0 -96 -10 -106 -31
-4 -10 -9 -91 -12 -180 l-4 -163 -38 0 -38 0 -4 163 c-3 89 -8 170 -12 180 -5
9 -20 21 -35 25 -34 9 -708 9 -742 0 -15 -4 -30 -16 -35 -25 -4 -10 -9 -91
-12 -180 l-4 -163 -24 0 c-17 0 -69 41 -176 138 -272 247 -248 229 -324 238
-107 11 -239 -2 -287 -28 -70 -39 -99 -121 -50 -144 10 -4 119 -10 243 -13
l225 -6 3 -92 3 -93 -195 0 c-220 0 -262 9 -345 75 -74 59 -127 43 -115 -34
l7 -41 -39 0 c-35 0 -44 6 -90 57 l-51 57 -109 1 c-60 0 -121 -3 -136 -7 -15
-5 -41 -29 -62 -58 l-36 -50 -119 0 -118 0 -7 69 c-3 38 -9 76 -12 85 -13 33
-44 15 -101 -56 -89 -112 -81 -107 -117 -66 -17 19 -51 58 -75 87 -31 38 -49
51 -65 49 -19 -3 -22 -12 -30 -85 l-9 -83 -39 0 -38 0 2 218 3 217 33 3 c42 4
48 0 132 -119 74 -103 106 -134 132 -124 9 4 53 58 99 121 82 112 104 130 146
122 16 -3 19 -19 24 -158 3 -85 9 -163 14 -173 10 -25 54 -33 84 -16 14 8 66
78 116 156 111 175 127 193 163 193 35 0 63 -29 132 -138 29 -45 60 -87 70
-92 26 -14 103 -12 122 3 9 6 21 30 28 52 19 61 48 104 91 132 71 47 102 52
302 53 l188 0 129 -120z m2185 85 l0 -30 -80 -2 c-248 -4 -325 -23 -365 -87
-24 -40 -26 -98 -4 -135 40 -68 117 -90 329 -94 l120 -2 0 -30 0 -30 -169 -3
c-197 -3 -248 7 -314 64 -58 49 -72 80 -72 159 0 78 14 110 72 159 66 57 107
65 308 63 l175 -2 0 -30z m-1410 -180 l0 -30 -88 -5 c-94 -5 -107 -12 -107
-62 0 -24 20 -56 38 -59 4 -1 77 -4 162 -8 l155 -6 3 -32 3 -33 -225 0 -226 0
0 128 c0 71 3 132 7 136 4 3 68 5 142 4 l136 -3 0 -30z"/>
<path d="M2007 3062 c-32 -35 -14 -72 33 -72 48 0 66 42 32 73 -24 22 -45 21
-65 -1z"/>
</g>
</svg>
